<svg xmlns="http://www.w3.org/2000/svg" width="440" height="454" viewBox="0 0 440 454">
  <defs>
    <style>
      .cls-1 {
        fill: #fff;
        fill-rule: evenodd;
      }
    </style>
  </defs>
  <path id="シェイプ_1" data-name="シェイプ 1" class="cls-1" d="M168.376,328.092q-2.145,27.1-4.285,54.069-2.6-26.919-5.2-53.695-3.711.159-7.422,0.337-2.522,26.876-5.037,53.545-2.223-26.609-4.448-53.059-4.555.249-9.109,0.526,3.446,34.558,6.888,69.528h12.48q1.5-15.921,3-31.912,1.55,15.929,3.1,31.912h12.48q3.333-35.667,6.676-71.552Q172.934,327.928,168.376,328.092ZM92.2,375.825q-0.032-17.07-.064-34.14c-0.013-6.29-1.646-8.664-5.852-8.266q-8.379.786-16.75,1.669,0.045,32.128.089,64.255h9.1q-0.011-7.037-.023-14.073l1.7-.036q1.71,7.019,3.421,14.109h9.1q-1.883-7.736-3.765-15.392C91.328,382.874,92.206,380.338,92.2,375.825Zm-13.51.6q-0.027-16.633-.055-33.267,2.272-.194,4.545-0.382,0.029,16.747.058,33.494Zm31.8,3.1,0.021,10.515-4.347.046q-0.048-24.523-.1-49.047,2.174-.15,4.346-0.294,0.009,4.123.017,8.246,4.482-.255,8.966-0.489-0.008-3.819-.016-7.639c-0.012-6.416-1.583-10.064-7.9-9.582q-3.531.269-7.062,0.555c-4.618.379-7.395,2.933-7.385,8.509q0.048,25,.1,49.993c0.012,6.394,2.939,9,7.422,9.006h7.336c6.114,0.008,7.6-4.656,7.588-9.853q-0.009-5.079-.02-10.159Q114.968,379.424,110.486,379.524Zm85.464-52.163q-3.913.066-7.826,0.154c-4.628.106-7.414,4.1-7.407,10.628q0.027,25.538.053,51.074c0.007,6.695,2.932,10.124,7.415,10.126h8.083c4.959,0,7.539-3.689,7.536-10.348q-0.011-25.537-.023-51.074C203.779,331.184,201.326,327.272,195.95,327.361Zm-6.142,62.146q-0.022-26.055-.043-52.111,2.483-.045,4.967-0.083,0.016,26.091.035,52.181ZM337.6,331.979q-3.9-.321-7.808-0.621c-4.618-.36-7.412,3.184-7.424,9.442q-0.05,24.429-.1,48.857c-0.012,6.414,2.9,9.693,7.385,9.686h8.084c4.958-.007,7.547-3.421,7.558-9.574l0.09-47.255C345.4,336.289,342.961,332.43,337.6,331.979Zm-1.338,58.13-4.958-.054,0.1-49.206q2.478,0.165,4.956.34Q336.308,365.65,336.259,390.109Zm-114.031,9.234h9.1q-1.865-8.39-3.732-16.783c2.174-1.123,3.06-3.85,3.061-8.747q0-18.531.01-37.062c0-6.823-1.63-9.571-5.851-9.586q-8.406-.027-16.811.044l0.024,72.134h9.1q0-7.791,0-15.583h1.7Q220.529,391.552,222.228,399.343Zm-5.1-25.383,0-36.838q2.28,0,4.559,0,0,18.42,0,36.839Q219.408,373.958,217.131,373.96ZM363.37,390.446l-4.822-.065,0.1-56.516q-4.51-.437-9.023-0.847-0.052,28.476-.106,56.951c-0.012,6.209,2.9,9.381,7.387,9.374h8.016c4.959-.009,7.544-3.287,7.552-9.195q0.037-27.432.074-54.865-4.542-.486-9.084-0.942ZM399.3,377.777q0-15.654,0-31.307c0-5.757-1.623-8.273-5.82-8.792q-8.359-1.018-16.728-1.938-0.037,31.8-.075,63.6h9.1q0.006-6.755.01-13.51l1.7,0.043q1.692,6.777,3.387,13.467h9.1q-1.868-7.077-3.732-14.262C398.42,384.185,399.3,381.912,399.3,377.777Zm-8.956-.251q-2.272-.1-4.546-0.188,0.014-15.968.026-31.936,2.269,0.228,4.538.461ZM44.934,337.9q-2.326,31.008-4.669,61.441h9.171q0.337-4.139.675-8.288l5.432-.085,0.686,8.373H65.4q-2.282-31.9-4.552-63.31Q52.887,336.922,44.934,337.9Zm5.849,44.844q0.769-18.477,1.536-37.063l1.017-.1q0.792,18.464,1.588,37.036Zm184.8-55.5-0.03,72.1H254.64l0.009-9.823q-5-.016-9.988-0.028,0.019-31.062.041-62.124Q240.142,327.29,235.582,327.241Zm59.857,11.585q3.57,0.162,7.139.34l-0.111,60.177h9.169q0.058-29.847.116-59.7,3.534,0.195,7.067.405,0.009-4.746.019-9.492-11.686-.805-23.382-1.422Q295.447,333.983,295.439,338.826Zm-36.5-11.143q-0.036,35.831-.073,71.66h15.556c5.774,0,7.412-5.049,7.42-10.092q0.037-25.018.076-50.037c0.011-6.618-1.549-10.8-7.194-11.016Q266.828,327.9,258.935,327.683ZM272.8,389.6l-4.825-.023q0.033-25.882.064-51.763,2.415,0.069,4.83.146Zm-9.041,26.345h-6.435c-3.92,0-6.377,2.869-6.377,7.67v22.952c0,4.918,2.516,7.436,6.377,7.436h6.669c4.328,0,6.491-2.693,6.491-7.554V423.727C270.485,418.81,268.263,415.941,263.76,415.941Zm-0.7,30.857h-4.679V423.2h4.679v23.6Zm-56.1-16.337H201.7V423.2h9.887v-7.26H200.409c-3.978,0-6.375,1.815-6.375,6.206v24.708c0,5.036,2.456,7.144,6.434,7.144h6.552c4.795,0,6.258-3.572,6.258-7.436v-8.314C213.278,433.273,211.815,430.461,206.961,430.461ZM205.79,446.8H201.7v-9.193h4.094V446.8Zm37.144-30.857h-8.423c-4.153,0-5.381,2.518-5.381,6.85v4.8h7.663V422.85h3.918v4.567l-11.406,19.848V454h19.069v-6.734H237.493l9.712-16.979a6.228,6.228,0,0,0,1.169-3.747V422.85C248.374,418.459,247.205,415.941,242.934,415.941Zm-56.974,0h-8.422c-4.153,0-5.381,2.518-5.381,6.85v4.8h7.662V422.85h3.919v4.567l-11.406,19.848V454H191.4v-6.734H180.52l9.711-16.979a6.228,6.228,0,0,0,1.169-3.747V422.85C191.4,418.459,190.231,415.941,185.96,415.941Zm101.255,0h-8.422c-4.153,0-5.381,2.518-5.381,6.85v4.8h7.662V422.85h3.919v4.567l-11.406,19.848V454h19.069v-6.734H281.775l9.712-16.979a6.235,6.235,0,0,0,1.169-3.747V422.85C292.656,418.459,291.487,415.941,287.215,415.941Zm-124.711,0H156.07c-3.921,0-6.377,2.869-6.377,7.67v22.952c0,4.918,2.515,7.436,6.377,7.436h6.669c4.328,0,6.491-2.693,6.491-7.554V423.727C169.23,418.81,167.008,415.941,162.5,415.941ZM161.8,446.8h-4.679V423.2H161.8v23.6Zm132.434-23.6h10.178a58.7,58.7,0,0,0-5.615,25.236V454h7.837v-5.562A59.158,59.158,0,0,1,312.37,423.2v-7.26H294.236v7.26Zm-78.618,16.687h11.056V432.51H215.618v7.378Zm-73.94-23.947h-8.422c-4.153,0-5.381,2.518-5.381,6.85v4.8h7.662V422.85h3.919v4.567L128.05,447.265V454h19.068v-6.734h-10.88l9.711-16.979a6.228,6.228,0,0,0,1.169-3.747V422.85C147.118,418.459,145.949,415.941,141.678,415.941ZM76.952,121.725l0.606,3.245c8.523,45.621,33.884,128.22,108,168.99,9.784,5.718,19.951,10.253,31.265,15.166l3.3,1.434,3.3-1.434c11.321-4.915,21.489-9.45,31.265-15.166,74.117-40.768,99.477-123.368,108-168.99l0.606-3.245-1.787-2.774c-16.8-26.112-52.022-52.273-78.458-66.111C266.634,30.054,244.5,10.954,223.517,1.526L220.122,0l-3.4,1.525C195.739,10.955,173.611,30.054,157.2,52.84c-26.436,13.837-61.659,40-78.46,66.111Zm86.76-60.883c13.769-19.6,34.861-39.7,56.411-49.384,21.55,9.682,42.641,29.781,56.41,49.384,24.169,12.318,59.7,38.039,75.834,63.117-11.889,63.637-43.682,128.484-102.26,160.659-9.552,5.592-19.944,10.175-29.984,14.535-10.04-4.36-20.433-8.943-29.985-14.535C131.56,252.443,99.767,187.6,87.878,123.959,104.014,98.881,139.544,73.16,163.712,60.842Zm6.565,196.694a163.851,163.851,0,0,0,30.867,20.22,0.228,0.228,0,0,0,.312-0.283c-0.71-1.934-1.394-3.794-2.019-5.451-4.8-13.091-8.927-26.511-12.653-39.946A658.9,658.9,0,0,1,163.907,95.845q-0.8-10.542-1.2-21.114a0.222,0.222,0,0,0-.334-0.184A241.306,241.306,0,0,0,129.859,97.49a294.3,294.3,0,0,0-29.477,30.7,0.18,0.18,0,0,0-.039.172,506.04,506.04,0,0,0,15.8,50.818,0.223,0.223,0,0,0,.411.022l10.007-21.5a0.221,0.221,0,0,1,.4-0.007l6.765,13.166a0.221,0.221,0,0,1,.02.147l-6.607,32.018a0.226,0.226,0,0,0,.021.151C138.041,223.789,152.045,242.538,170.277,257.536ZM137.4,153.214a0.221,0.221,0,0,1-.414.061l-4.338-8.443a0.221,0.221,0,0,1,0-.2l9.363-19.085a0.221,0.221,0,0,1,.416.138ZM245.554,257.581c-1.383,4-3.408,10.487-4.882,14.441-0.626,1.649-1.311,3.511-2.022,5.451a0.227,0.227,0,0,0,.311.282q5.358-2.713,10.518-5.792c35.449-20.809,58.538-53.835,73.681-90.722a0.224,0.224,0,0,0-.17-0.305l-23.1-3.774a0.221,0.221,0,0,0-.217.093l-4.771,6.883-8.047,11.611a0.221,0.221,0,0,1-.4-0.179l6.532-26.641,6.532-26.64a0.221,0.221,0,0,1,.434.025l1.763,14.021,1.093,8.695a0.222,0.222,0,0,0,.135.177l22.634,9.323a0.216,0.216,0,0,0,.29-0.119c5.076-13.4,12.664-40.18,13.9-46.048a0.2,0.2,0,0,0-.046-0.175c-3.932-4.815-9.05-11.274-13.436-15.828a232.346,232.346,0,0,0-48.559-37.814,0.222,0.222,0,0,0-.334.184q-0.37,9.69-1.076,19.362a657.8,657.8,0,0,1-24.03,141.65C250.8,240.616,247.249,252.894,245.554,257.581Zm-25.911,28.487a0.227,0.227,0,0,0,.414-0.125V155.977a0.221,0.221,0,0,1,.441-0.028l13.4,104.862a0.221,0.221,0,0,0,.428.047c1.1-3.165,2.225-6.406,3.153-9.053,1.656-4.845,5.337-16.647,6.787-21.563a661.875,661.875,0,0,0,17.1-74.215,0.222,0.222,0,0,0-.1-0.223l-17.5-11.827a0.221,0.221,0,0,1,.124-0.4h19.28a0.224,0.224,0,0,0,.221-0.19,634.735,634.735,0,0,0,6.692-71.99,0.228,0.228,0,0,0-.042-0.141A124.526,124.526,0,0,0,259.6,58.516,155.075,155.075,0,0,0,233.56,35.981a90,90,0,0,0-13.377-7.543,0.232,0.232,0,0,0-.191,0c-15.075,6.88-28.111,18.1-39.48,30.078a124.548,124.548,0,0,0-10.45,12.737,0.23,0.23,0,0,0-.043.141,649.442,649.442,0,0,0,25.826,158.85C201.477,249.533,208.364,269.1,219.643,286.068Zm0.413-213.451a0.221,0.221,0,0,1,.405-0.122l12.193,18.458a0.222,0.222,0,0,1,.023.2L220.484,124.24a0.221,0.221,0,0,1-.428-0.077V72.617ZM18.864,233.335L54.436,248.6a0.221,0.221,0,0,0,.233-0.37L0.462,200.546a0.221,0.221,0,0,0-.338.276l18.635,32.42A0.218,0.218,0,0,0,18.864,233.335Zm23.159-57.957,37.823-109.3a0.221,0.221,0,0,0-.378-0.215l-37,44.247a0.22,0.22,0,0,0-.052.139L41.593,175.3A0.221,0.221,0,0,0,42.023,175.378ZM148.071,287.2L8.871,239.851a0.222,0.222,0,0,0-.209.383l60.133,48.024a0.216,0.216,0,0,0,.14.048L148,287.631A0.221,0.221,0,0,0,148.071,287.2ZM80.718,297.6a0.221,0.221,0,0,0-.043.434l36.59,9.746a0.221,0.221,0,0,0,.139-0.009l35.113-14.179a0.221,0.221,0,0,0-.1-0.426ZM34.065,165.811a0.221,0.221,0,0,0,.425-0.095L30.861,92.757a0.221,0.221,0,0,0-.427-0.069L17.656,125.9a0.22,0.22,0,0,0,0,.164ZM11.141,194.49l55.453,56.385a0.221,0.221,0,0,0,.356-0.253L1.43,116.685a0.221,0.221,0,0,0-.418.126l10.067,77.553A0.221,0.221,0,0,0,11.141,194.49Zm395.9-28.679,16.407-39.746a0.226,0.226,0,0,0,0-.164L410.672,92.688a0.222,0.222,0,0,0-.428.069l-3.629,72.959A0.221,0.221,0,0,0,407.041,165.811Zm-6.976,10.045-0.822-65.049a0.221,0.221,0,0,0-.052-0.139l-37-44.247a0.221,0.221,0,0,0-.379.214l37.823,109.3A0.221,0.221,0,0,0,400.065,175.856Zm-26.659,75.019,55.453-56.385a0.219,0.219,0,0,0,.062-0.126l10.067-77.553a0.221,0.221,0,0,0-.418-0.126L373.05,250.622A0.221,0.221,0,0,0,373.406,250.875Zm57.723-11.024L291.929,287.2a0.221,0.221,0,0,0,.069.431l79.067,0.675a0.215,0.215,0,0,0,.14-0.048l60.133-48.024A0.221,0.221,0,0,0,431.129,239.851ZM287.483,293.587L322.6,307.766a0.221,0.221,0,0,0,.139.009l36.59-9.746a0.221,0.221,0,0,0-.043-0.434l-71.7-4.434A0.221,0.221,0,0,0,287.483,293.587Zm152.055-93.041-54.207,47.688a0.221,0.221,0,0,0,.233.37l35.572-15.269a0.221,0.221,0,0,0,.1-0.093l18.634-32.42A0.221,0.221,0,0,0,439.538,200.546Z"/>
</svg>
