<?xml version="1.0" encoding="UTF-8"?>
<svg id="Layer_2" xmlns="http://www.w3.org/2000/svg" version="1.1" viewBox="0 0 1669.73 750">
  <!-- Generator: Adobe Illustrator 29.5.0, SVG Export Plug-In . SVG Version: 2.1.0 Build 137)  -->
  <defs>
    <style>
      .st0 {
        fill: #fff;
      }
    </style>
  </defs>
  <g id="Layer_1-2">
    <g id="_Agon_By_AOC_Recreated">
      <path class="st0" d="M373.04,432.96h-80.79v-119.68l-212.23.03.13,119.65H0V139.41c0-21.68,7.22-41.79,20.93-55.49,14.2-14.58,31.95-23.24,47.6-23.75,78.83.85,154.47.68,233.2.68,34.6,0,71.32,33.6,71.32,70v302.1h0ZM292.18,141.15l-212.02-.12v91.66l212.07-.12-.05-91.42h0Z"/>
      <path class="st0" d="M805.84,171.79l-81.27-.11-.04-30.6-211.47-.05-.11,211.94h211.61v-56.67l-80.55-.11v-80.34h161.88l-.11,144.63c0,12.27-5.34,30.52-17.99,45.19-12.87,14.92-34.44,26.92-47.51,26.92l-239.15.42c-17.72-2.11-32.56-8.58-46.2-22.23-12.76-12.67-22.04-29.65-22.04-48.47,0-76.35,0-198.47.22-231.33.11-16.89,8.47-34.78,21.82-48.2,12.63-12.7,31.34-21.37,48.91-22.69,75.51,0,153.63.24,230.04.24,12.11-.17,33.96,7.05,46.65,19.74,16.52,15.01,25.39,35.64,25.39,51.03l-.08,40.7h0Z"/>
      <path class="st0" d="M933.98,60.17h231.26c36.81,4.07,67.36,33.58,70.39,70.7v227.37c-.55,32.34-31.98,70.58-66.83,74.7-78.29.01-158.07.01-235.44.01-14.82.31-31.5-5.76-50.07-23.58-13.94-14.43-20.71-32.52-20.71-45.51v-234.29c0-23.94,22.58-65.28,71.4-69.4h0ZM1154.04,141.07l-211.65-.05.04,211.62,211.63-.02s-.02-211.55-.02-211.55Z"/>
      <polygon class="st0" points="1584.9 309 1584.82 60.15 1665.63 60.15 1665.63 432.96 1582.75 432.96 1372.72 183.18 1372.66 432.96 1292.63 432.96 1292.68 60.15 1373.85 60.15 1584.9 309"/>
      <path class="st0" d="M1669.73,624.01v5c0,18.64-.21,35.44-15.67,48.4-15.45,12.72-34.31,12.49-54.07,12.49-46.36,0-80.22-2.26-80.22-64.53v-44.09c0-56.35,30.22-64.52,80.22-64.52,46.8,0,68.61,4.77,69.52,55.89v6.58h-46.81v-6.58c-1.59-15.23-12.27-16.36-27.72-16.36-25.9,0-28.4,7.95-28.4,32.26v26.59c0,25.44,1.13,35.21,28.4,35.21,18.87,0,27.94-1.35,27.94-21.35v-5h46.81Z"/>
      <path class="st0" d="M1424.04,689.91c46.13,0,78.85-10,78.85-62.49v-48.17c0-52.48-32.72-62.47-78.85-62.47s-78.84,10-78.84,62.47v48.17c0,52.49,32.72,62.49,78.84,62.49ZM1424.04,650.36c-23.63,0-31.34-2.49-32.04-27.93v-38.42c.69-25.22,8.41-27.71,32.04-27.71s32.04,2.49,32.04,27.71v38.42c0,25.44-8.4,27.93-32.04,27.93"/>
      <path class="st0" d="M1204.07,688.54l49.7-107.93c8.07-17.5,12.55-22.96,30.28-22.96v130.89h45.45v-170.42h-51.33c-42.26,0-50.73,18.06-71.2,62.5l-49.7,107.93h46.81-.01Z"/>
      <path class="st0" d="M868.16,576.13h88.51c3.47,0,9.75,3.67,11.63,5.49,1.95,1.95,7.06,8.17,7.06,14.57.02,0,.03,25.52.01,25.52-.04,2.73-.87,4.22-.85,5.6s4.89,6.12,4.89,12.01c0,6.31-.04,23.07-.04,30.97,0,3.84-2.64,8.25-6.46,11.78-4.05,3.73-10.05,6.47-13.34,6.47h-91.4v-112.41s-.01,0-.01,0ZM953.26,598.41l-62.95.02.02,21.46,62.88-.02.05-21.45h0ZM957.54,641.97l-67.22.11-.04,24.16,67.27.05v-24.33h-.01Z"/>
      <polygon class="st0" points="1011.96 576.08 1048.35 622.26 1084.71 576.13 1111.14 576.13 1059.13 646.46 1058.88 688.54 1037.52 688.51 1037.51 646.5 985.32 576.13 1011.96 576.08"/>
    </g>
  </g>
</svg>